<?xml version="1.0" standalone="no"?>
<!DOCTYPE svg PUBLIC "-//W3C//DTD SVG 20010904//EN"
 "http://www.w3.org/TR/2001/REC-SVG-20010904/DTD/svg10.dtd">
<svg version="1.0" xmlns="http://www.w3.org/2000/svg"
 width="1280.000000pt" height="1280.000000pt" viewBox="0 0 1280.000000 1280.000000"
 preserveAspectRatio="xMidYMid meet">
<g transform="translate(0.000000,1280.000000) scale(0.100000,-0.100000)"
fill="#000000" stroke="none">
<path d="M6139 11901 c-49 -15 -75 -35 -174 -131 -111 -108 -133 -122 -229
-146 -98 -25 -109 -42 -104 -166 5 -105 21 -144 59 -150 29 -4 44 -50 69 -207
10 -69 33 -169 50 -221 31 -94 121 -289 179 -385 16 -28 27 -55 23 -60 -4 -6
-27 -21 -52 -34 -25 -13 -90 -47 -145 -77 -55 -29 -180 -80 -279 -115 -273
-96 -270 -92 -297 -320 -11 -92 -35 -225 -55 -304 -43 -173 -156 -511 -264
-795 -150 -393 -149 -367 -31 -540 118 -173 137 -218 176 -428 52 -284 54
-285 256 -176 163 89 189 80 176 -60 -3 -33 -20 -122 -37 -196 -117 -506 -173
-816 -174 -979 -1 -95 2 -125 12 -129 8 -2 40 24 71 58 32 35 61 58 64 53 3
-5 -27 -153 -67 -329 l-73 -320 53 -760 c29 -417 53 -762 54 -766 0 -3 186
-171 413 -373 226 -202 420 -378 429 -393 22 -34 58 -168 58 -219 0 -23 -14
-79 -31 -125 -47 -126 -69 -239 -76 -385 -8 -184 13 -238 104 -256 48 -9 139
19 206 63 32 22 63 37 68 34 5 -3 9 -24 9 -46 0 -35 7 -48 45 -89 48 -51 51
-63 35 -119 -6 -19 -15 -71 -20 -115 -23 -208 -65 -345 -172 -565 -44 -91 -89
-190 -100 -220 -25 -72 -34 -177 -19 -223 11 -31 20 -39 67 -57 l55 -20 170
21 c94 11 189 27 212 35 125 44 177 153 177 379 0 50 -5 185 -12 301 -9 167
-9 225 1 280 7 38 17 91 22 119 8 44 23 68 50 77 5 2 69 329 143 728 l134 725
-31 321 -31 321 122 544 c68 299 123 553 123 564 -1 11 -26 233 -57 493 -51
422 -57 499 -39 480 3 -3 32 -75 64 -160 81 -215 132 -308 215 -395 107 -113
235 -165 330 -133 20 6 55 29 78 51 30 27 51 39 73 39 40 1 109 33 128 61 9
12 24 45 34 72 10 28 39 73 64 101 96 107 98 128 40 324 -22 72 -42 152 -46
179 -3 26 -8 60 -11 74 -3 18 4 36 26 64 39 50 40 102 1 266 -58 243 -82 397
-181 1165 -169 1308 -228 1671 -291 1795 -15 31 -30 41 -111 74 -128 53 -483
233 -784 398 -220 121 -253 143 -267 173 -26 53 -21 94 24 211 53 138 60 204
29 268 -19 38 -21 51 -11 71 17 38 14 72 -18 180 -17 54 -37 150 -45 211 -29
215 -58 238 -365 293 -163 30 -243 35 -292 21z m1463 -3373 c25 -176 50 -275
162 -665 142 -495 159 -596 146 -876 -8 -192 -6 -210 26 -254 13 -17 24 -34
24 -36 0 -3 -26 -24 -57 -48 -32 -23 -90 -74 -129 -112 -47 -44 -74 -64 -79
-57 -4 6 -13 96 -21 198 -16 218 -42 492 -84 892 -49 466 -60 608 -60 750 0
191 24 369 47 346 3 -3 14 -65 25 -138z m-1027 -3880 c82 -895 91 -1047 64
-1063 -4 -3 -26 41 -48 98 -22 57 -94 220 -160 362 -119 256 -121 259 -222
381 -56 67 -106 128 -110 136 -6 10 234 678 360 1002 8 20 15 26 22 19 5 -5
48 -426 94 -935z"/>
</g>
</svg>
